<?xml version="1.0" encoding="UTF-8"?>
<svg width="312px" height="208px" viewBox="0 0 312 208" version="1.1" xmlns="http://www.w3.org/2000/svg" xmlns:xlink="http://www.w3.org/1999/xlink">
    <title>Screen Shot 2020-06-02 at 7.02.35 PM</title>
    <defs>
        <polygon id="path-1" points="0 0 312 0 312 208 0 208"></polygon>
    </defs>
    <g id="Demo:Burger-Shop" stroke="none" stroke-width="1" fill="none" fill-rule="evenodd">
        <g id="Demo_Burger-Shop_1" transform="translate(-81.000000, -280.000000)">
            <g id="Group-6-Copy-16" transform="translate(60.000000, 229.000000)">
                <g id="Group-8" transform="translate(20.000000, 1.000000)">
                    <g id="Screen-Shot-2020-06-02-at-7.02.35-PM" transform="translate(1.000000, 50.000000)">
                        <mask id="mask-2" fill="white">
                            <use xlink:href="#path-1"></use>
                        </mask>
                        <use id="Mask" fill="#111111" xlink:href="#path-1"></use>
                        <g id="Group-14" mask="url(#mask-2)">
                            <g transform="translate(89.000000, 41.000000)">
                                <g id="Group-10" transform="translate(0.424658, 0.000000)">
                                    <path d="M123.770032,41.2810447 C117.60787,17.6791435 92.5078068,0.00827732485 62.475007,0.00827732485 C32.4422073,0.00827732485 7.34214363,17.6791435 1.18033204,41.2810447 L123.770032,41.2810447 Z" id="Fill-2" fill="#FAE952"></path>
                                    <polygon id="Fill-4" fill="#DC002D" points="120.145675 48.3476559 7.37983761 45.8927481 7.37983761 63.3568557 120.145675 63.3568557"></polygon>
                                    <polygon id="Fill-6" fill="#449D6B" points="1.99868999 99.6375782 124.763223 99.6375782 124.763223 82.1734706 1.99868999 82.1734706"></polygon>
                                    <path d="M122.330422,67.5081979 L5.44622043,67.5081979 C2.6062344,67.5081979 0.303335124,69.8080369 0.303335124,72.6450289 C0.303335124,75.4820209 2.6062344,77.7818599 5.44622043,77.7818599 L78.020766,77.7818599 C81.2534268,77.7818599 84.0504039,80.0303585 84.742043,83.1848225 L85.58229,87.0192845 C86.2714814,90.1636202 89.0597169,92.4047845 92.2818877,92.4047845 C95.5047578,92.4047845 98.2926436,90.1636202 98.9821846,87.0192845 L99.8224317,83.1848225 C100.513371,80.0303585 103.310349,77.7818599 106.543709,77.7818599 L122.330422,77.7818599 C125.170758,77.7818599 127.473308,75.4820209 127.473308,72.6450289 C127.473308,69.8080369 125.170758,67.5081979 122.330422,67.5081979" id="Fill-8" fill="#FAE952"></path>
                                    <path d="M117.356531,121.882046 L6.50196653,121.882046 C3.31196499,121.882046 0.725836369,119.298962 0.725836369,116.112716 L0.725836369,109.511462 C0.725836369,106.325216 3.31196499,103.742481 6.50196653,103.742481 L117.356531,103.742481 C120.546532,103.742481 123.132661,106.325216 123.132661,109.511462 L123.132661,116.112716 C123.132661,119.298962 120.546532,121.882046 117.356531,121.882046" id="Fill-9" fill="#FAE952"></path>
                                </g>
                                <g id="Group-23" transform="translate(27.424658, 10.000000)">
                                    <path d="M41.3246732,13.7375433 C41.0023969,15.6501281 36.6948822,20.2869437 36.6948822,20.2869437 C36.6948822,20.2869437 34.1488645,14.4703236 34.4711408,12.5577388 C34.793767,10.645154 36.5892063,9.35854468 38.4815735,9.68426409 C40.3739407,10.0099835 41.6469495,11.8249586 41.3246732,13.7375433" id="Fill-11" fill="#C5B488"></path>
                                    <path d="M52.3440729,8.394684 C51.5081141,6.64796502 52.3545705,0.345418186 52.3545705,0.345418186 C52.3545705,0.345418186 57.7674824,3.58952694 58.6030913,5.33659958 C59.4383503,7.08331855 58.7147158,9.18369595 56.9864611,10.0282323 C55.2578564,10.8731223 53.1796818,10.141403 52.3440729,8.394684" id="Fill-13" fill="#C5B488"></path>
                                    <path d="M69.2953858,13.7344311 C70.5921892,15.1649795 71.5730148,21.4473678 71.5730148,21.4473678 C71.5730148,21.4473678 65.4662116,19.9114292 64.1694082,18.4805272 C62.8726048,17.0499789 62.9688328,14.827943 64.3842591,13.5172849 C65.8000352,12.2066267 67.9985824,12.3035291 69.2953858,13.7344311" id="Fill-15" fill="#C5B488"></path>
                                    <path d="M2.75044092,20.9288338 C1.40919769,19.5403708 0.231017162,13.2929947 0.231017162,13.2929947 C0.231017162,13.2929947 6.38296009,14.6312382 7.72420332,16.0193475 C9.06544655,17.4078105 9.03955248,19.6319683 7.66611661,20.9875411 C6.29268074,22.3431138 4.09168415,22.3169431 2.75044092,20.9288338" id="Fill-17" fill="#C5B488"></path>
                                    <path d="M16.9474988,4.92338507 C18.1158815,3.38355627 24.0662706,1.31430081 24.0662706,1.31430081 C24.0662706,1.31430081 23.6323698,7.65893301 22.4646869,9.19911546 C21.2963041,10.7385906 19.1142032,11.0296515 17.5910016,9.84913965 C16.0674501,8.66827416 15.7794659,6.46321386 16.9474988,4.92338507" id="Fill-19" fill="#C5B488"></path>
                                </g>
                            </g>
                        </g>
                    </g>
                </g>
            </g>
        </g>
    </g>
</svg>