<?xml version="1.0" encoding="UTF-8"?>
<svg width="115px" height="117px" viewBox="0 0 115 117" version="1.1" xmlns="http://www.w3.org/2000/svg" xmlns:xlink="http://www.w3.org/1999/xlink">
    <title>Group 10</title>
    <defs>
        <polygon id="path-1" points="0 0.7873 114.2128 0.7873 114.2128 115 0 115"></polygon>
    </defs>
    <g id="Page-2" stroke="none" stroke-width="1" fill="none" fill-rule="evenodd">
        <g id="Group-10">
            <g id="Group-3" transform="translate(0.000000, 0.213000)">
                <mask id="mask-2" fill="white">
                    <use xlink:href="#path-1"></use>
                </mask>
                <g id="Clip-2"></g>
                <path d="M114.2128,57.8933 C114.2128,89.4333 88.6458,115.0003 57.1068,115.0003 C25.5668,115.0003 -0.0002,89.4333 -0.0002,57.8933 C-0.0002,26.3543 25.5668,0.7873 57.1068,0.7873 C88.6458,0.7873 114.2128,26.3543 114.2128,57.8933" id="Fill-1" fill="#133069" mask="url(#mask-2)"></path>
            </g>
            <path d="M85.1615,84.2406 C81.4325,72.2876 70.2875,63.6076 57.1065,63.6076 C43.9255,63.6076 32.7805,72.2876 29.0515,84.2406 L85.1615,84.2406 Z" id="Fill-4" fill="#FFFFFF"></path>
            <polygon id="Fill-6" fill="#FFFFFF" points="41.8896 51.348 35.8856 51.348 35.2296 35.367 41.9386 35.505"></polygon>
            <polygon id="Fill-8" fill="#FFFFFF" points="78.9345 51.6844 72.9305 51.6844 72.2745 35.7034 78.9835 35.8414"></polygon>
        </g>
    </g>
</svg>